<?xml version="1.0" standalone="no"?><!DOCTYPE svg PUBLIC "-//W3C//DTD SVG 1.1//EN" "http://www.w3.org/Graphics/SVG/1.1/DTD/svg11.dtd"><svg t="1754124812753" class="icon" viewBox="0 0 1024 1024" version="1.1" xmlns="http://www.w3.org/2000/svg" p-id="2519" xmlns:xlink="http://www.w3.org/1999/xlink" width="200" height="200"><path d="M1031.3728 706.38523733L1031.3728 195.264512c0-110.1824-89.41294933-199.59534933-199.66088533-199.59534933L192.76868267-4.33083733C82.591744-4.33083733-6.82666667 85.082112-6.82666667 195.264512l0 638.943232c0 110.17693867 89.34741333 199.589888 199.59534934 199.589888l638.943232 0c98.172928 0 179.86901333-70.98641067 196.542464-164.35336533-52.94762667-22.91029333-282.38916267-121.995264-401.915904-179.03342934-90.963968 110.18786133-186.22600533 176.308224-329.82084267 176.308224s-239.435776-88.44629333-227.950592-196.67899733c7.59125333-71.05194667 56.32273067-187.19812267 267.98216533-167.28064 111.542272 10.44753067 162.6112 31.28251733 253.58609067 61.31985067 23.54926933-43.139072 43.073536-90.64721067 57.933824-141.19185067L244.678656 422.887424l0-39.97149867 199.589888 0L444.268544 311.148544 200.81322667 311.148544l0-43.99104 243.45531733 0L444.268544 163.59970133c0 0 2.20637867-16.22562133 20.119552-16.22562133l99.794944 0 0 119.783424 259.538944 0 0 43.99104-259.538944 0 0 71.76738133 211.730432 0c-19.46965333 79.22756267-48.99362133 152.027136-85.97777067 215.61890134C751.44669867 620.78976 1031.3728 706.38523733 1031.3728 706.38523733L1031.3728 706.38523733 1031.3728 706.38523733 1031.3728 706.38523733zM280.625152 798.19025067c-151.70491733 0-175.71293867-95.76448-167.66839467-135.806976 7.979008-39.84042667 51.90997333-91.81047467 136.265728-91.81047467 96.93866667 0 183.75748267 24.78353067 287.965184 75.51931733C463.99488 741.41969067 374.063104 798.19025067 280.625152 798.19025067L280.625152 798.19025067 280.625152 798.19025067z" fill="#1E7CFC" p-id="2520"></path></svg>
