<?xml version="1.0" standalone="no"?><!DOCTYPE svg PUBLIC "-//W3C//DTD SVG 1.1//EN" "http://www.w3.org/Graphics/SVG/1.1/DTD/svg11.dtd"><svg t="1754174450495" class="icon" viewBox="0 0 1024 1024" version="1.1" xmlns="http://www.w3.org/2000/svg" p-id="9920" xmlns:xlink="http://www.w3.org/1999/xlink" width="200" height="200"><path d="M512.02048 850.39104c102.52288 0 185.6512 34.26304 185.6512 76.55424s-83.12832 76.55424-185.6512 76.55424-185.6512-34.304-185.6512-76.55424 83.12832-76.55424 185.6512-76.55424z" opacity=".3" p-id="9921"></path><path d="M515.3792 916.2752h-14.11072a154.39872 154.39872 0 0 1-19.08736-51.05664c-23.42912-72.06912-79.03232-124.0064-135.63904-169.51296a440.81152 440.81152 0 0 1-120.832-141.45536 345.82528 345.82528 0 0 1-50.95424-180.79744 337.53088 337.53088 0 1 1 674.97984 0 344.53504 344.53504 0 0 1-50.62656 180.224 441.56928 441.56928 0 0 1-121.26208 142.04928c-56.60672 45.50656-112.20992 97.44384-135.3728 168.448a106.496 106.496 0 0 1-22.528 52.65408l-4.48512-0.49152z" fill="#F74949" p-id="9922"></path><path d="M512.02048 41.90208a329.728 329.728 0 0 1 326.9632 331.50976 336.46592 336.46592 0 0 1-49.93024 176.128 430.51008 430.51008 0 0 1-118.00576 137.66656c-57.93792 46.61248-114.85184 99.86048-138.8544 173.50656l-0.32768 1.024-0.22528 1.06496a151.2448 151.2448 0 0 1-15.5648 42.68032h-8.04864a148.60288 148.60288 0 0 1-15.5648-42.68032l-0.26624-1.06496-0.36864-0.96256c-23.98208-73.728-80.91648-126.976-138.89536-173.50656a432.128 432.128 0 0 1-119.00928-139.53024 333.96736 333.96736 0 0 1-48.90624-174.34624A329.728 329.728 0 0 1 512.02048 41.90208m0-21.42208a350.55616 350.55616 0 0 0-348.16 352.91136 354.304 354.304 0 0 0 52.10112 185.61024 451.42016 451.42016 0 0 0 123.84256 145.03936c47.26784 37.9904 108.38016 91.17696 131.93216 163.47136 0 0 11.71456 53.67808 29.30688 59.392h21.9136c17.63328-5.77536 29.34784-59.392 29.34784-59.392 23.53152-72.2944 84.66432-125.44 131.93216-163.47136a452.38272 452.38272 0 0 0 123.74016-144.77312 354.79552 354.79552 0 0 0 52.20352-185.83552A350.5152 350.5152 0 0 0 512.02048 20.48z" fill="#FFFFFF" p-id="9923"></path><path d="M435.69152 204.00128a620.544 620.544 0 0 1-48.37376 102.01088l31.3344-4.34176c6.36928-13.74208 12.77952-28.95872 19.92704-44.8512l32.37888 11.93984a968.704 968.704 0 0 1-68.3008 127.32416 387.6864 387.6864 0 0 0 49.41824-17.03936v33.62816a417.792 417.792 0 0 1-92.16 25.68192l-9.64608-33.9968a59.88352 59.88352 0 0 0 16.75264-10.48576 352.39936 352.39936 0 0 0 35.24608-58.59328c-15.64672 2.17088-31.66208 4.7104-48.76288 7.22944l-9.25696-34.36544a32.39936 32.39936 0 0 0 15.33952-13.74208 693.5552 693.5552 0 0 0 41.22624-104.16128z m31.66208 281.02656a658.20672 658.20672 0 0 1-112.78336 31.1296l-5.34528-39.77216a649.95328 649.95328 0 0 0 118.10816-29.65504v38.2976z m96.09216-289.36192a430.4896 430.4896 0 0 1-8.88832 27.8528h95.72352v30.37184a321.7408 321.7408 0 0 1-49.84832 72.68352 446.60736 446.60736 0 0 0 79.36 41.22624l-19.2512 33.9968a429.64992 429.64992 0 0 1-86.016-50.2784 312.19712 312.19712 0 0 1-99.61472 55.296l-18.18624-33.23904a272.54784 272.54784 0 0 0 89.33376-45.568 415.25248 415.25248 0 0 1-32.768-33.28 334.336 334.336 0 0 1-24.90368 26.03008l-23.47008-30.72a203.28448 203.28448 0 0 0 60.86656-99.1232l37.70368 4.7104z m90.0096 301.32224l-19.92704 31.45728a902.16448 902.16448 0 0 0-157.24544-54.96832l20.95104-31.45728a964.11648 964.11648 0 0 1 156.20096 54.96832z m-12.8-74.52672l-18.14528 28.93824a544.07168 544.07168 0 0 0-101.74464-36.53632l19.5584-29.2864a631.43936 631.43936 0 0 1 100.31104 36.90496z m-33.0752-162.77504h-70.12352q-2.68288 4.21888-4.95616 8.68352a383.46752 383.46752 0 0 0 39.13728 36.864 312.60672 312.60672 0 0 0 35.92192-45.568z" fill="#FFFFFF" p-id="9924"></path></svg>