<svg width="80" height="80" viewBox="0 0 80 80" fill="none" xmlns="http://www.w3.org/2000/svg">
<rect width="80" height="80" rx="16" fill="#07C160"/>
<path d="M25.5 32.5C25.5 26.7 30.2 22 36 22C41.8 22 46.5 26.7 46.5 32.5C46.5 38.3 41.8 43 36 43C30.2 43 25.5 38.3 25.5 32.5Z" fill="white"/>
<path d="M33.5 45C33.5 39.2 38.2 34.5 44 34.5C49.8 34.5 54.5 39.2 54.5 45C54.5 50.8 49.8 55.5 44 55.5C38.2 55.5 33.5 50.8 33.5 45Z" fill="white"/>
<circle cx="32" cy="30" r="2" fill="#07C160"/>
<circle cx="40" cy="30" r="2" fill="#07C160"/>
<circle cx="40" cy="43" r="1.5" fill="#07C160"/>
<circle cx="48" cy="43" r="1.5" fill="#07C160"/>
</svg>